<svg width="64" height="64" viewBox="0 0 64 64" fill="none" xmlns="http://www.w3.org/2000/svg">
<path d="M57 12V22C57 22.2652 56.8946 22.5196 56.7071 22.7071C56.5196 22.8946 56.2652 23 56 23C55.7348 23 55.4804 22.8946 55.2929 22.7071C55.1054 22.5196 55 22.2652 55 22V13H46C45.7348 13 45.4804 12.8946 45.2929 12.7071C45.1054 12.5196 45 12.2652 45 12C45 11.7348 45.1054 11.4804 45.2929 11.2929C45.4804 11.1054 45.7348 11 46 11H56C56.2652 11 56.5196 11.1054 56.7071 11.2929C56.8946 11.4804 57 11.7348 57 12ZM18 51H9V42C9 41.7348 8.89464 41.4804 8.70711 41.2929C8.51957 41.1054 8.26522 41 8 41C7.73478 41 7.48043 41.1054 7.29289 41.2929C7.10536 41.4804 7 41.7348 7 42V52C7 52.2652 7.10536 52.5196 7.29289 52.7071C7.48043 52.8946 7.73478 53 8 53H18C18.2652 53 18.5196 52.8946 18.7071 52.7071C18.8946 52.5196 19 52.2652 19 52C19 51.7348 18.8946 51.4804 18.7071 51.2929C18.5196 51.1054 18.2652 51 18 51ZM56 41C55.7348 41 55.4804 41.1054 55.2929 41.2929C55.1054 41.4804 55 41.7348 55 42V51H46C45.7348 51 45.4804 51.1054 45.2929 51.2929C45.1054 51.4804 45 51.7348 45 52C45 52.2652 45.1054 52.5196 45.2929 52.7071C45.4804 52.8946 45.7348 53 46 53H56C56.2652 53 56.5196 52.8946 56.7071 52.7071C56.8946 52.5196 57 52.2652 57 52V42C57 41.7348 56.8946 41.4804 56.7071 41.2929C56.5196 41.1054 56.2652 41 56 41ZM8 23C8.26522 23 8.51957 22.8946 8.70711 22.7071C8.89464 22.5196 9 22.2652 9 22V13H18C18.2652 13 18.5196 12.8946 18.7071 12.7071C18.8946 12.5196 19 12.2652 19 12C19 11.7348 18.8946 11.4804 18.7071 11.2929C18.5196 11.1054 18.2652 11 18 11H8C7.73478 11 7.48043 11.1054 7.29289 11.2929C7.10536 11.4804 7 11.7348 7 12V22C7 22.2652 7.10536 22.5196 7.29289 22.7071C7.48043 22.8946 7.73478 23 8 23ZM20 21C19.7348 21 19.4804 21.1054 19.2929 21.2929C19.1054 21.4804 19 21.7348 19 22V42C19 42.2652 19.1054 42.5196 19.2929 42.7071C19.4804 42.8946 19.7348 43 20 43C20.2652 43 20.5196 42.8946 20.7071 42.7071C20.8946 42.5196 21 42.2652 21 42V22C21 21.7348 20.8946 21.4804 20.7071 21.2929C20.5196 21.1054 20.2652 21 20 21ZM45 22C45 21.7348 44.8946 21.4804 44.7071 21.2929C44.5196 21.1054 44.2652 21 44 21C43.7348 21 43.4804 21.1054 43.2929 21.2929C43.1054 21.4804 43 21.7348 43 22V42C43 42.2652 43.1054 42.5196 43.2929 42.7071C43.4804 42.8946 43.7348 43 44 43C44.2652 43 44.5196 42.8946 44.7071 42.7071C44.8946 42.5196 45 42.2652 45 42V22ZM36 21C35.7348 21 35.4804 21.1054 35.2929 21.2929C35.1054 21.4804 35 21.7348 35 22V42C35 42.2652 35.1054 42.5196 35.2929 42.7071C35.4804 42.8946 35.7348 43 36 43C36.2652 43 36.5196 42.8946 36.7071 42.7071C36.8946 42.5196 37 42.2652 37 42V22C37 21.7348 36.8946 21.4804 36.7071 21.2929C36.5196 21.1054 36.2652 21 36 21ZM28 21C27.7348 21 27.4804 21.1054 27.2929 21.2929C27.1054 21.4804 27 21.7348 27 22V42C27 42.2652 27.1054 42.5196 27.2929 42.7071C27.4804 42.8946 27.7348 43 28 43C28.2652 43 28.5196 42.8946 28.7071 42.7071C28.8946 42.5196 29 42.2652 29 42V22C29 21.7348 28.8946 21.4804 28.7071 21.2929C28.5196 21.1054 28.2652 21 28 21Z" fill="#585858" fill-opacity="0.36"/>
</svg>
