<svg width="12" height="14" viewBox="0 0 12 14" fill="none" xmlns="http://www.w3.org/2000/svg">
<path d="M5.53917 12.25L11.25 6.53917V7.70584C11.25 8.015 11.1275 8.3125 10.9058 8.52834L6.36167 13.0725C5.90667 13.5275 5.16583 13.5275 4.71083 13.0725L1.08833 9.45C0.633333 8.995 0.633333 8.25417 1.08833 7.79917L5.53917 12.25Z" fill="white"/>
<path d="M6.36167 10.1558C6.13417 10.3833 5.83667 10.5 5.53917 10.5C5.24167 10.5 4.94417 10.3833 4.71667 10.1558L1.09417 6.53333C0.639166 6.07833 0.639166 5.3375 1.09417 4.8825L5.63833 0.338333C5.85417 0.1225 6.15167 0 6.46083 0H10.0833C10.725 0 11.25 0.525 11.25 1.16667V4.78917C11.25 5.09833 11.1275 5.39583 10.9058 5.61167L6.36167 10.1558ZM10.0833 1.16667H6.46083L1.91667 5.71083L5.53917 9.33333L10.0833 4.78917V1.16667Z" fill="white"/>
<path d="M8.77083 3.20833C8.36813 3.20833 8.04167 2.88187 8.04167 2.47917C8.04167 2.07646 8.36813 1.75 8.77083 1.75C9.17354 1.75 9.5 2.07646 9.5 2.47917C9.5 2.88187 9.17354 3.20833 8.77083 3.20833Z" fill="white"/>
</svg>
